<svg height='100px' width='100px'  fill="#000000" xmlns:dc="http://purl.org/dc/elements/1.1/" xmlns:cc="http://creativecommons.org/ns#" xmlns:rdf="http://www.w3.org/1999/02/22-rdf-syntax-ns#" xmlns:svg="http://www.w3.org/2000/svg" xmlns="http://www.w3.org/2000/svg" xmlns:sodipodi="http://sodipodi.sourceforge.net/DTD/sodipodi-0.dtd" xmlns:inkscape="http://www.inkscape.org/namespaces/inkscape" version="1.1" viewBox="0 0 6.3499999 6.3500002" x="0px" y="0px"><g><g style="" transform="rotate(90,156.43772,140.5624)" display="inline"><path style="color:#000000;font-style:normal;font-variant:normal;font-weight:normal;font-stretch:normal;font-size:medium;line-height:normal;font-family:sans-serif;font-variant-ligatures:normal;font-variant-position:normal;font-variant-caps:normal;font-variant-numeric:normal;font-variant-alternates:normal;font-variant-east-asian:normal;font-feature-settings:normal;font-variation-settings:normal;text-indent:0;text-align:start;text-decoration:none;text-decoration-line:none;text-decoration-style:solid;text-decoration-color:#000000;letter-spacing:normal;word-spacing:normal;text-transform:none;writing-mode:lr-tb;direction:ltr;text-orientation:mixed;dominant-baseline:auto;baseline-shift:baseline;text-anchor:start;white-space:normal;shape-padding:0;shape-margin:0;inline-size:0;clip-rule:nonzero;display:inline;overflow:visible;visibility:visible;opacity:1;isolation:auto;mix-blend-mode:normal;color-interpolation:sRGB;color-interpolation-filters:linearRGB;solid-color:#000000;solid-opacity:1;vector-effect:none;fill:#000000;fill-opacity:1;fill-rule:nonzero;stroke:none;stroke-width:2;stroke-linecap:round;stroke-linejoin:round;stroke-miterlimit:4;stroke-dasharray:none;stroke-dashoffset:0;stroke-opacity:1;color-rendering:auto;image-rendering:auto;shape-rendering:auto;text-rendering:auto;enable-background:accumulate;stop-color:#000000;stop-opacity:1" d="m 81.939453,6.0351562 a 1.0000006,1.0000006 0 0 0 -0.603515,0.21875 1.0000006,1.0000006 0 0 0 -0.15625,1.4082032 l 2.669921,3.3398436 -15.890625,0.03516 a 1.0000006,1.0000006 0 0 0 -0.996093,1.003907 1.0000006,1.0000006 0 0 0 1.003906,0.996093 l 15.943359,-0.03516 -2.730468,3.408203 a 1.0000006,1.0000006 0 0 0 0.15625,1.410156 1.0000006,1.0000006 0 0 0 1.410156,-0.154296 l 4,-5.00586 a 1.0001006,1.0001006 0 0 0 0.214844,-0.605468 1.0001006,1.0001006 0 0 0 -0.214844,-0.642579 l -4,-4.9960934 A 1.0000006,1.0000006 0 0 0 81.939453,6.0351562 Z" transform="matrix(0,-0.26458334,0.26458334,0,15.86509,314.18799)"></path></g></g></svg>